<?xml version="1.0" encoding="UTF-8"?>
<svg id="Layer_2" data-name="Layer 2" xmlns="http://www.w3.org/2000/svg" viewBox="0 0 58.38 47.25">
  <defs>
    <style>
      .cls-1 {
        stroke-width: .25px;
      }

      .cls-1, .cls-2 {
        stroke: #000;
        stroke-miterlimit: 10;
      }

      .cls-1, .cls-2, .cls-3 {
        fill: #fff;
      }

      .cls-2 {
        stroke-width: .5px;
      }

      .cls-4 {
        fill: #ce7432;
      }

      .cls-4, .cls-3 {
        stroke-width: 0px;
      }
    </style>
  </defs>
  <g id="Layer_1-2">
    <g>
      <path class="cls-2" d="m47.88,14.86c4.22-.3,10.45-.41,10.24,5.29s-5.61,9.17-10.58,10.17l1.03-3.78c3.29-.46,6-3.21,6.21-6.56.27-4.24-4.03-3.86-6.21-2.52l-.69-2.6Z"/>
      <path class="cls-2" d="m47.88,11.61c4.81,19.93-6.87,35.04-22.68,35.39C8.03,47.37.47,31.39.47,17.11"/>
      <path class="cls-1" d="m48.9,15.15C48.53,6.81,37.76.12,24.52.12S.12,7.05.12,15.59s10.92,15.46,24.39,15.46,24.02-6.69,24.39-15.02c0-.14,0-.29,0-.44s0-.29,0-.44Z"/>
      <path class="cls-4" d="m47.54,15.39c0,.13,0,.27,0,.4-.35,7.59-10.42,13.69-22.81,13.69S1.89,23.17,1.89,15.39,12.11,1.3,24.72,1.3s22.47,6.09,22.81,13.69c0,.13,0,.27,0,.4Z"/>
      <path class="cls-3" d="m24.99,25.69c.39,0,.79.06-1.07.06,1.12,0-.8-.06,1.08-.06-1.67,0-1.94-.17-1.04-.17-.88,0-1.1-.38-3.22-.38-1.45,0,.79-.49,1.04-.49-.81,0-4.18-.6-2.36-.6-1.23,0-2.85-.73-.38-.73.82,0-2.81-1.04-.04-1.04-.15,0-3.07-.7-2.2-.7,1.52,0-1.39-.97.86-.97-1.52,0-1.53-1.06.38-1.06-1.52,0-.4-.96-1.93-.96-1.7,0,.95-1.03-.35-1.03-1.78,0-1.09-1.1-.05-1.1-.47,0-1.14-1.06-.11-1.06-1.96,0-.84-1.09-1.69-1.09,3.16,0,3.53-1.06,2.99-1.06-1.72,0-1.92-1.06-1.72-1.06,1.29,0-.23-1.05-.9-1.05,1.61,0,3.83-.98.96-.98,1.09,0,1.7-.85,3.71-.85-2.53,0-1.78-1.07-1.26-1.07.63,0,.17-.71,1.19-.71-1.8,0,.65-.72,1.93-.72-1.69,0,.16-.54-.27-.54-.53,0,1.3-.61,1.33-.61-.18,0-1.14-.4,1.84-.4.04,0-1.8.03,1.36.03-2.07,0-.53-.29-.37-.29-.99,0,1.07.09,1.13.09-.88,0-.74-.09,1.08-.09-.84,0-.34.24-.16.24.26,0,.74.29,1.93.29-.77,0,.87.14.77.14.81,0,1.33.52,2.19.52-.12,0,.54.67.32.67-.8,0,1.88.86.29.86-1.41,0,1.15.86.21.86,1.89,0,2.28.9.4.9,1.99,0-.34.94.4.94,1.51,0-.95.99,1.49.99.62,0,1.22.97.73.97-1.96,0-3.67.31-2.69.31-.94,0-1.11-.2.07-.2.43,0-.25.19-2,.19.87,0-1.71-.12-1.38-.12-.89,0-1.5.08,1.23.08-.43,0-2.38-1.02-3.5-1.02,2.52,0-.43-1.14,3.02-1.14-3.39,0-1.75-.74-1.76-.74-1.06,0-.51-.78-3.32-.78,2.5,0,1.24-.16.5-.16,1.31,0-2.49.44-1.26.44.42,0-.44.08-1.82.08,2.19,0-1.74.93-.8.93-.61,0-.06.9.47.9.31,0-1.64.98.83.98-3.33,0-3.83,1.06-3.64,1.06,1.81,0,.99,1.09.5,1.09-.66,0,1.37,1.14-.78,1.14,1.89,0,2.58,1.13.18,1.13.71,0,2.48,1.11,2.16,1.11-1.79,0-.68,1.01-.7,1.01.73,0,1.07,1.11-.05,1.11-.14,0,1.58.95,1.32.95.18,0,1.49.7,1.92.7-.41,0-.69.3-.7.3.93,0,3.55.06,1.09.06,2.57,0,1.71-.25,2.12-.25-1.07,0-.7-.18.57-.18-.7,0,.91-.72-.54-.72,2.28,0,2.1-.84,3.05-.84-1.11,0-.43-.91.8-.91.22,0,.47-1-.82-1-1.09,0,.19-.02-.53-.02,2.81,0,2.39.24,1.82.24.3,0,3.26-.04,3.27-.04-2.63,0,.14-.02.83-.02-2.96,0,.51-.23-1.16-.23,2.16,0,1.74,1.21-1.07,1.21-.7,0-.03,1.12-.33,1.12,2.58,0,.54,1.02,2.67,1.02-2.79,0-.81.82-1.76.82-.06,0-2.34,1.11-.98,1.11.02,0-.67.79-2.46.79,3.42,0-.42.54,2.04.54.47,0-1.83.46-1.81.46-2.14,0-1.49.65-2.01.65-.48,0,.94.26-1.62.26,2.97,0-.84-.09-.58-.09,1.83,0-1.58,0-.88,0Z"/>
    </g>
  </g>
</svg>