<?xml version="1.0" encoding="UTF-8"?>
<svg id="Layer_2" data-name="Layer 2" xmlns="http://www.w3.org/2000/svg" viewBox="0 0 38.55 31.23">
  <defs>
    <style>
      .cls-1 {
        stroke-width: .25px;
      }

      .cls-1, .cls-2 {
        stroke: #000;
        stroke-miterlimit: 10;
      }

      .cls-1, .cls-2, .cls-3 {
        fill: #fff;
      }

      .cls-2 {
        stroke-width: .5px;
      }

      .cls-4 {
        fill: #ce7432;
      }

      .cls-4, .cls-3 {
        stroke-width: 0px;
      }
    </style>
  </defs>
  <g id="Layer_1-2">
    <g>
      <path class="cls-2" d="m31.56,9.82c2.78-.2,6.88-.27,6.74,3.48s-3.69,6.04-6.97,6.69l.68-2.49c2.17-.3,3.95-2.11,4.09-4.32.18-2.79-2.65-2.54-4.09-1.66l-.45-1.71Z"/>
      <path class="cls-2" d="m31.56,7.68c3.17,13.12-4.52,23.07-14.92,23.29C5.33,31.22.35,20.7.35,11.3"/>
      <path class="cls-4" d="m31.33,10.17c0,.09,0,.18,0,.26-.23,5-6.82,9.01-14.92,9.01S1.48,15.29,1.48,10.17,8.16.9,16.41.9s14.69,4.01,14.92,9.01c0,.09,0,.18,0,.26Z"/>
      <path class="cls-3" d="m16.49,16.95c.26,0,.52.04-.7.04.74,0-.52-.04.71-.04-1.1,0-1.28-.11-.69-.11-.58,0-.73-.25-2.12-.25-.96,0,.52-.32.68-.32-.53,0-2.75-.39-1.55-.39-.81,0-1.88-.48-.25-.48.54,0-1.85-.69-.03-.69-.1,0-2.02-.46-1.45-.46,1,0-.92-.64.57-.64-1,0-1-.7.25-.7-1,0-.26-.63-1.27-.63-1.12,0,.63-.68-.23-.68-1.17,0-.72-.72-.03-.72-.31,0-.75-.7-.07-.7-1.29,0-.55-.72-1.11-.72,2.08,0,2.32-.7,1.97-.7-1.13,0-1.26-.7-1.13-.7.85,0-.15-.69-.59-.69,1.06,0,2.52-.65.63-.65.72,0,1.12-.56,2.44-.56-1.66,0-1.17-.7-.83-.7.42,0,.11-.47.78-.47-1.19,0,.43-.47,1.27-.47-1.11,0,.1-.35-.18-.35-.35,0,.86-.4.87-.4-.12,0-.75-.26,1.21-.26.03,0-1.18.02.89.02-1.36,0-.35-.19-.24-.19-.65,0,.7.06.74.06-.58,0-.49-.06.71-.06-.55,0-.23.16-.11.16.17,0,.49.19,1.27.19-.51,0,.57.09.51.09.54,0,.87.34,1.44.34-.08,0,.36.44.21.44-.53,0,1.24.57.19.57-.93,0,.76.57.14.57,1.24,0,1.5.59.27.59,1.31,0-.22.62.27.62.99,0-.62.65.98.65.41,0,.8.64.48.64-1.29,0-2.42.2-1.77.2-.62,0-.73-.13.05-.13.28,0-.16.13-1.32.13.57,0-1.12-.08-.91-.08-.59,0-.99.05.81.05-.28,0-1.56-.67-2.3-.67,1.66,0-.28-.75,1.99-.75-2.23,0-1.15-.48-1.16-.48-.7,0-.34-.52-2.19-.52,1.65,0,.82-.11.33-.11.86,0-1.64.29-.83.29.27,0-.29.05-1.2.05,1.44,0-1.15.61-.53.61-.4,0-.04.59.31.59.2,0-1.08.65.55.65-2.19,0-2.52.7-2.39.7,1.19,0,.65.72.33.72-.43,0,.9.75-.51.75,1.24,0,1.7.74.12.74.47,0,1.63.73,1.42.73-1.18,0-.45.66-.46.66.48,0,.71.73-.03.73-.09,0,1.04.62.87.62.12,0,.98.46,1.27.46-.27,0-.45.2-.46.2.61,0,2.34.04.71.04,1.69,0,1.13-.16,1.4-.16-.7,0-.46-.12.37-.12-.46,0,.6-.48-.35-.48,1.5,0,1.38-.55,2.01-.55-.73,0-.28-.6.52-.6.14,0,.31-.66-.54-.66-.72,0,.12-.01-.35-.01,1.85,0,1.58.16,1.2.16.2,0,2.14-.03,2.15-.03-1.73,0,.09-.01.55-.01-1.95,0,.34-.15-.77-.15,1.42,0,1.15.8-.7.8-.46,0-.02.74-.22.74,1.7,0,.35.67,1.76.67-1.84,0-.54.54-1.16.54-.04,0-1.54.73-.64.73.01,0-.44.52-1.62.52,2.25,0-.28.36,1.35.36.31,0-1.21.3-1.19.3-1.41,0-.98.43-1.32.43-.32,0,.62.17-1.07.17,1.96,0-.55-.06-.38-.06,1.21,0-1.04,0-.58,0Z"/>
      <path class="cls-1" d="m31.1,10.17c0,.09,0,.18,0,.26-.23,5-6.82,9.01-14.92,9.01S1.26,15.29,1.26,10.17,7.94.9,16.18.9s14.69,4.01,14.92,9.01c0,.09,0,.18,0,.26Zm1.13-.16C31.99,4.53,24.9.12,16.18.12S.12,4.68.12,10.3s7.19,10.18,16.06,10.18,15.81-4.4,16.05-9.89c0-.09,0-.19,0-.29s0-.19,0-.29Z"/>
    </g>
  </g>
</svg>