<?xml version="1.0" encoding="UTF-8" standalone="no"?>
<!DOCTYPE svg PUBLIC "-//W3C//DTD SVG 1.1//EN">
<svg height="100%" stroke-miterlimit="10" style="fill-rule:nonzero;clip-rule:evenodd;stroke-linecap:round;stroke-linejoin:round;" viewBox="0 0 1024 1024" width="100%" xml:space="preserve" xmlns="http://www.w3.org/2000/svg">
<path d="M419.844 52.7188C414.321 52.7188 409.844 57.1959 409.844 62.7188L409.844 166.938C390.423 173.005 371.482 180.934 353.125 190.562L279.344 116.781C275.439 112.876 269.124 112.876 265.219 116.781L134.875 247.125C130.969 251.031 130.968 257.345 134.875 261.25L208.344 334.688C198.578 353.12 190.551 372.173 184.375 391.75L80.8125 391.75C75.2897 391.75 70.8125 396.227 70.8125 401.75L70.8125 586.062C70.8125 591.585 75.2897 596.063 80.8125 596.062L183.812 596.062C189.92 615.819 197.929 635.084 207.719 653.75L134.875 726.594C130.969 730.499 130.969 736.813 134.875 740.719L265.219 871.031C269.125 874.936 275.439 874.937 279.344 871.031L351.812 798.531C370.556 808.465 389.939 816.596 409.844 822.812L409.844 925.094C409.844 930.617 414.321 935.094 419.844 935.094L604.156 935.094C609.679 935.094 614.156 930.617 614.156 925.094L614.156 818.531C614.156 815.879 613.094 813.344 611.219 811.469L519.062 719.312C517.187 717.437 514.652 716.375 512 716.375C389.13 716.375 289.531 616.776 289.531 493.906C289.531 371.037 389.13 271.437 512 271.438C634.549 271.438 733.984 370.541 734.438 493.062C734.447 495.702 735.509 498.227 737.375 500.094L830.406 593.125C832.282 595 834.817 596.063 837.469 596.062L943.188 596.062C948.71 596.062 953.188 591.585 953.188 586.062L953.188 401.75C953.188 396.227 948.71 391.75 943.188 391.75L839.625 391.75C833.449 372.174 825.422 353.12 815.656 334.688L889.125 261.25C893.031 257.345 893.03 251.031 889.125 247.125L758.812 116.781C754.907 112.875 748.593 112.876 744.688 116.781L670.906 190.562C652.553 180.936 633.608 173.011 614.156 166.938L614.156 62.7188C614.156 57.1959 609.679 52.7187 604.156 52.7188C602.716 52.7188 421.284 52.7187 419.844 52.7188ZM429.844 72.7188C447.595 72.7187 576.405 72.7188 594.156 72.7188L594.156 174.25C594.156 178.711 597.119 182.645 601.406 183.875C624.336 190.454 646.571 199.726 667.969 211.531C671.869 213.683 676.726 212.993 679.875 209.844L751.75 137.969L867.938 254.188L796.344 325.75C793.182 328.91 792.48 333.783 794.656 337.688C806.61 359.139 816.061 381.483 822.75 404.531C823.99 408.804 827.894 411.75 832.344 411.75L933.188 411.75L933.188 576.062L841.594 576.062L754.312 488.781C751.569 357.205 644.151 251.437 512 251.438C378.085 251.437 269.531 359.991 269.531 493.906C269.531 626.406 375.822 734.019 507.781 736.281L594.156 822.656L594.156 915.094L429.844 915.094L429.844 815.5C429.844 811.039 426.881 807.105 422.594 805.875C399.237 799.173 376.594 789.684 354.844 777.562C354.836 777.558 354.82 777.567 354.812 777.562C354.674 777.486 354.548 777.382 354.406 777.312C353.643 777.063 353.443 777.023 352.969 776.875C352.518 776.731 352.086 776.516 351.625 776.438C351.802 776.481 352.28 776.679 352.5 776.75C352.201 776.661 351.656 776.486 351.438 776.438C350.555 776.305 349.66 776.272 348.781 776.375C348.761 776.377 348.704 776.373 348.688 776.375C348.604 776.386 348.521 776.394 348.438 776.406C348.428 776.408 348.416 776.405 348.406 776.406C346.361 776.724 344.416 777.677 342.875 779.219L272.281 849.844L156.062 733.656L227 662.719C230.149 659.57 230.838 654.712 228.688 650.812C216.711 629.098 207.336 606.562 200.75 583.344C199.53 579.042 195.597 576.063 191.125 576.062L90.8125 576.062L90.8125 411.75L191.656 411.75C196.106 411.75 200.01 408.804 201.25 404.531C207.939 381.483 217.39 359.137 229.344 337.688C231.52 333.782 230.818 328.91 227.656 325.75L156.062 254.188L272.281 137.969L344.156 209.844C347.305 212.993 352.163 213.682 356.062 211.531C377.479 199.718 399.702 190.445 422.594 183.875C426.881 182.645 429.844 178.71 429.844 174.25L429.844 72.7188ZM348.781 776.375C348.938 776.355 348.994 776.328 349.562 776.281C349.499 776.284 349.475 776.278 349.406 776.281C348.862 776.334 348.921 776.358 348.781 776.375ZM350.094 776.312C350.58 776.312 351 776.324 351.406 776.406C350.971 776.311 350.498 776.308 350.094 776.312Z" fill="#000000" fill-rule="nonzero" opacity="1" stroke="none"/>
<path d="M490.438 318.781C472.886 319.257 464.428 340.522 476.844 352.938C494.577 370.671 526.796 402.921 547.75 423.875C541.912 447.777 534.028 480.084 528.125 504.25C503.944 510.16 471.624 518.064 447.719 523.906C426.765 502.953 394.546 470.702 376.812 452.969C364.397 440.553 343.131 449.011 342.656 466.562C341.477 510.111 353.219 561.813 390.281 598.875C437.901 646.495 514.729 664.998 573.969 646.656C649.168 718.885 786.965 851.27 857.969 919.469C865.822 927.012 878.269 926.887 885.969 919.188C900.243 904.913 928.788 876.368 943.062 862.094C950.762 854.394 950.918 841.947 943.375 834.094C875.167 763.081 742.761 625.232 670.531 550.031C688.892 490.68 670.239 413.895 622.75 366.406C585.659 329.315 533.943 317.602 490.438 318.781Z" fill="#131313" fill-rule="nonzero" opacity="1" stroke="none"/>
<path d="M362.656 467.104C361.576 507 372.608 552.92 404.422 584.734C449.796 630.109 526.839 645.608 578.897 623.679L871.838 905.049L928.936 847.951L647.548 554.992C669.464 502.935 653.987 425.901 608.621 380.535C576.806 348.72 530.869 337.707 490.972 338.788L569.875 417.69L544.689 520.802L441.559 546.006L362.656 467.104Z" fill="#131313" fill-rule="nonzero" opacity="1" stroke="none"/>
</svg>
